# xmcd
#
# Track frame offsets:
#	150
#	15226
#	33730
#	45724
#	60269
#	79753
#	85981
#	103233
#	125358
#	139695
#	156103
#	170382
#	186189
#	206741
#
# Disc length: 3041 seconds
#
# Revision: 2
# Processed by: cddbd v1.5.2PL0 Copyright (c) Steve Scherf et al.
# Submitted via: audiograbber 1.83.01
#
DISCID=b40bdf0e
DTITLE=Guerilla Fresta - Ca Ira Mieux Demain
DYEAR=2010
DGENRE=Chanson
TTITLE0=ca ira mieux demain
TTITLE1=enfants ou soldats
TTITLE2=je positiv' [feat. kenot']
TTITLE3=rester couché
TTITLE4=baisser le rideau
TTITLE5=bandit ya !
TTITLE6=mama Africa
TTITLE7=ainsi va la vie
TTITLE8=le terminal [feat. gaston]
TTITLE9=rengaine swing
TTITLE10=la lumiere des ombres
TTITLE11=les mots parlent
TTITLE12=faya lips
TTITLE13=freedom p'tit bonhomme
EXTD=
EXTT0=
EXTT1=
EXTT2=
EXTT3=
EXTT4=
EXTT5=
EXTT6=
EXTT7=
EXTT8=
EXTT9=
EXTT10=
EXTT11=
EXTT12=
EXTT13=
PLAYORDER=
